<mxfile modified="2023-11-25T09:13:19.185Z" host="app.diagrams.net" agent="Mozilla/5.0 (Windows NT 10.0; Win64; x64) AppleWebKit/537.36 (KHTML, like Gecko) Chrome/119.0.0.0 Safari/537.36" etag="45A7oI5Hhd4lEowmhq_B" version="22.1.4" type="github">
  <diagram id="l8hXMBHkgcEJcSW0mbfh" name="Page-1">
    <mxGraphModel dx="1447" dy="1161" grid="1" gridSize="10" guides="1" tooltips="1" connect="1" arrows="1" fold="1" page="1" pageScale="1" pageWidth="1169" pageHeight="827" math="0" shadow="0">
      <root>
        <mxCell id="0" />
        <mxCell id="1" parent="0" />
        <mxCell id="FhsTj9oqkJKDGmvPL3ci-29" value="" style="ellipse;shape=cloud;whiteSpace=wrap;html=1;" vertex="1" parent="1">
          <mxGeometry x="688" y="534" width="370" height="510" as="geometry" />
        </mxCell>
        <mxCell id="FhsTj9oqkJKDGmvPL3ci-36" style="edgeStyle=orthogonalEdgeStyle;rounded=0;orthogonalLoop=1;jettySize=auto;html=1;exitX=0.5;exitY=1;exitDx=0;exitDy=0;" edge="1" parent="1" source="FhsTj9oqkJKDGmvPL3ci-1" target="FhsTj9oqkJKDGmvPL3ci-3">
          <mxGeometry relative="1" as="geometry" />
        </mxCell>
        <mxCell id="FhsTj9oqkJKDGmvPL3ci-1" value="" style="image;html=1;image=img/lib/clip_art/general/Earth_globe_128x128.png" vertex="1" parent="1">
          <mxGeometry x="440" y="20" width="80" height="80" as="geometry" />
        </mxCell>
        <mxCell id="FhsTj9oqkJKDGmvPL3ci-2" value="Internet" style="text;strokeColor=none;align=center;fillColor=none;html=1;verticalAlign=middle;whiteSpace=wrap;rounded=0;" vertex="1" parent="1">
          <mxGeometry x="520" y="40" width="60" height="30" as="geometry" />
        </mxCell>
        <mxCell id="FhsTj9oqkJKDGmvPL3ci-3" value="" style="image;aspect=fixed;perimeter=ellipsePerimeter;html=1;align=center;shadow=0;dashed=0;spacingTop=3;image=img/lib/active_directory/modem.svg;" vertex="1" parent="1">
          <mxGeometry x="455" y="140" width="50" height="41.5" as="geometry" />
        </mxCell>
        <mxCell id="FhsTj9oqkJKDGmvPL3ci-4" value="NBN modem" style="text;strokeColor=none;align=center;fillColor=none;html=1;verticalAlign=middle;whiteSpace=wrap;rounded=0;" vertex="1" parent="1">
          <mxGeometry x="520" y="145.75" width="60" height="30" as="geometry" />
        </mxCell>
        <mxCell id="FhsTj9oqkJKDGmvPL3ci-38" style="edgeStyle=orthogonalEdgeStyle;rounded=0;orthogonalLoop=1;jettySize=auto;html=1;exitX=0.5;exitY=1;exitDx=0;exitDy=0;exitPerimeter=0;" edge="1" parent="1" source="FhsTj9oqkJKDGmvPL3ci-5" target="FhsTj9oqkJKDGmvPL3ci-7">
          <mxGeometry relative="1" as="geometry" />
        </mxCell>
        <mxCell id="FhsTj9oqkJKDGmvPL3ci-39" style="edgeStyle=orthogonalEdgeStyle;rounded=0;orthogonalLoop=1;jettySize=auto;html=1;exitX=0.92;exitY=0.72;exitDx=0;exitDy=0;exitPerimeter=0;" edge="1" parent="1" source="FhsTj9oqkJKDGmvPL3ci-5" target="FhsTj9oqkJKDGmvPL3ci-9">
          <mxGeometry relative="1" as="geometry" />
        </mxCell>
        <mxCell id="FhsTj9oqkJKDGmvPL3ci-51" style="edgeStyle=orthogonalEdgeStyle;rounded=0;orthogonalLoop=1;jettySize=auto;html=1;exitX=1;exitY=0;exitDx=0;exitDy=0;exitPerimeter=0;" edge="1" parent="1" source="FhsTj9oqkJKDGmvPL3ci-5" target="FhsTj9oqkJKDGmvPL3ci-11">
          <mxGeometry relative="1" as="geometry" />
        </mxCell>
        <mxCell id="FhsTj9oqkJKDGmvPL3ci-5" value="" style="shape=mxgraph.cisco.modems_and_phones.modem;html=1;pointerEvents=1;dashed=0;fillColor=#036897;strokeColor=#ffffff;strokeWidth=2;verticalLabelPosition=bottom;verticalAlign=top;align=center;outlineConnect=0;" vertex="1" parent="1">
          <mxGeometry x="442" y="240" width="77" height="27" as="geometry" />
        </mxCell>
        <mxCell id="FhsTj9oqkJKDGmvPL3ci-6" value="EdgeRouter&lt;br&gt;192.168.10.1" style="text;strokeColor=none;align=center;fillColor=none;html=1;verticalAlign=middle;whiteSpace=wrap;rounded=0;" vertex="1" parent="1">
          <mxGeometry x="370" y="230" width="60" height="30" as="geometry" />
        </mxCell>
        <mxCell id="FhsTj9oqkJKDGmvPL3ci-7" value="" style="image;points=[];aspect=fixed;html=1;align=center;shadow=0;dashed=0;image=img/lib/allied_telesis/wireless/Access_Point_Indoor.svg;" vertex="1" parent="1">
          <mxGeometry x="463" y="340" width="36.6" height="54.6" as="geometry" />
        </mxCell>
        <mxCell id="FhsTj9oqkJKDGmvPL3ci-8" value="Upstairs AP&lt;br&gt;192.168.10.2" style="text;strokeColor=none;align=center;fillColor=none;html=1;verticalAlign=middle;whiteSpace=wrap;rounded=0;" vertex="1" parent="1">
          <mxGeometry x="525" y="352.3" width="60" height="30" as="geometry" />
        </mxCell>
        <mxCell id="FhsTj9oqkJKDGmvPL3ci-9" value="" style="image;points=[];aspect=fixed;html=1;align=center;shadow=0;dashed=0;image=img/lib/allied_telesis/wireless/Access_Point_Indoor.svg;" vertex="1" parent="1">
          <mxGeometry x="620" y="340" width="36.6" height="54.6" as="geometry" />
        </mxCell>
        <mxCell id="FhsTj9oqkJKDGmvPL3ci-10" value="Bedroom AP&lt;br&gt;192.168.10.4" style="text;strokeColor=none;align=center;fillColor=none;html=1;verticalAlign=middle;whiteSpace=wrap;rounded=0;" vertex="1" parent="1">
          <mxGeometry x="680" y="352.3" width="60" height="30" as="geometry" />
        </mxCell>
        <mxCell id="FhsTj9oqkJKDGmvPL3ci-46" style="edgeStyle=orthogonalEdgeStyle;rounded=0;orthogonalLoop=1;jettySize=auto;html=1;exitX=0.25;exitY=1;exitDx=0;exitDy=0;" edge="1" parent="1" source="FhsTj9oqkJKDGmvPL3ci-11" target="FhsTj9oqkJKDGmvPL3ci-26">
          <mxGeometry relative="1" as="geometry" />
        </mxCell>
        <mxCell id="FhsTj9oqkJKDGmvPL3ci-47" style="edgeStyle=orthogonalEdgeStyle;rounded=0;orthogonalLoop=1;jettySize=auto;html=1;exitX=0.5;exitY=1;exitDx=0;exitDy=0;entryX=0.5;entryY=0;entryDx=0;entryDy=0;" edge="1" parent="1" source="FhsTj9oqkJKDGmvPL3ci-11" target="FhsTj9oqkJKDGmvPL3ci-15">
          <mxGeometry relative="1" as="geometry" />
        </mxCell>
        <mxCell id="FhsTj9oqkJKDGmvPL3ci-53" style="edgeStyle=orthogonalEdgeStyle;rounded=0;orthogonalLoop=1;jettySize=auto;html=1;exitX=0.75;exitY=1;exitDx=0;exitDy=0;" edge="1" parent="1" source="FhsTj9oqkJKDGmvPL3ci-11" target="FhsTj9oqkJKDGmvPL3ci-52">
          <mxGeometry relative="1" as="geometry" />
        </mxCell>
        <mxCell id="FhsTj9oqkJKDGmvPL3ci-11" value="" style="image;html=1;image=img/lib/clip_art/networking/Switch_128x128.png" vertex="1" parent="1">
          <mxGeometry x="874" y="290" width="80" height="80" as="geometry" />
        </mxCell>
        <mxCell id="FhsTj9oqkJKDGmvPL3ci-45" style="edgeStyle=orthogonalEdgeStyle;rounded=0;orthogonalLoop=1;jettySize=auto;html=1;exitX=0.5;exitY=0;exitDx=0;exitDy=0;entryX=0;entryY=1;entryDx=0;entryDy=0;" edge="1" parent="1">
          <mxGeometry relative="1" as="geometry">
            <mxPoint x="190" y="462.3" as="sourcePoint" />
            <mxPoint x="884" y="352.3" as="targetPoint" />
            <Array as="points">
              <mxPoint x="190" y="407.3" />
              <mxPoint x="810" y="407.3" />
              <mxPoint x="810" y="382.3" />
              <mxPoint x="884" y="382.3" />
            </Array>
          </mxGeometry>
        </mxCell>
        <mxCell id="FhsTj9oqkJKDGmvPL3ci-49" style="edgeStyle=orthogonalEdgeStyle;rounded=0;orthogonalLoop=1;jettySize=auto;html=1;exitX=0;exitY=0.5;exitDx=0;exitDy=0;entryX=0.25;entryY=0;entryDx=0;entryDy=0;" edge="1" parent="1" source="FhsTj9oqkJKDGmvPL3ci-12" target="FhsTj9oqkJKDGmvPL3ci-30">
          <mxGeometry relative="1" as="geometry" />
        </mxCell>
        <mxCell id="FhsTj9oqkJKDGmvPL3ci-12" value="" style="image;html=1;image=img/lib/clip_art/networking/Switch_128x128.png" vertex="1" parent="1">
          <mxGeometry x="140" y="480" width="80" height="80" as="geometry" />
        </mxCell>
        <mxCell id="FhsTj9oqkJKDGmvPL3ci-13" value="" style="image;points=[];aspect=fixed;html=1;align=center;shadow=0;dashed=0;image=img/lib/allied_telesis/wireless/Access_Point_Indoor.svg;" vertex="1" parent="1">
          <mxGeometry x="251.7" y="680" width="36.6" height="54.6" as="geometry" />
        </mxCell>
        <mxCell id="FhsTj9oqkJKDGmvPL3ci-14" value="Upstairs AP&lt;br&gt;192.168.10.3" style="text;strokeColor=none;align=center;fillColor=none;html=1;verticalAlign=middle;whiteSpace=wrap;rounded=0;" vertex="1" parent="1">
          <mxGeometry x="310" y="692.3" width="60" height="30" as="geometry" />
        </mxCell>
        <mxCell id="FhsTj9oqkJKDGmvPL3ci-15" value="" style="shape=image;html=1;verticalAlign=top;verticalLabelPosition=bottom;labelBackgroundColor=#ffffff;imageAspect=0;aspect=fixed;image=https://cdn1.iconfinder.com/data/icons/fruit-136/64/Fruit_iconfree_Filled_Outline_raspberry-healthy-organic-food-fruit_icon-128.png" vertex="1" parent="1">
          <mxGeometry x="872" y="520" width="54" height="54" as="geometry" />
        </mxCell>
        <mxCell id="FhsTj9oqkJKDGmvPL3ci-16" value="R-Pi 4&lt;br&gt;192.168.10.40" style="text;strokeColor=none;align=center;fillColor=none;html=1;verticalAlign=middle;whiteSpace=wrap;rounded=0;" vertex="1" parent="1">
          <mxGeometry x="938" y="520" width="60" height="30" as="geometry" />
        </mxCell>
        <mxCell id="FhsTj9oqkJKDGmvPL3ci-17" value="" style="image;sketch=0;aspect=fixed;html=1;points=[];align=center;fontSize=12;image=img/lib/mscae/Docker.svg;" vertex="1" parent="1">
          <mxGeometry x="778" y="644" width="50" height="41" as="geometry" />
        </mxCell>
        <mxCell id="FhsTj9oqkJKDGmvPL3ci-18" value="" style="image;sketch=0;aspect=fixed;html=1;points=[];align=center;fontSize=12;image=img/lib/mscae/Docker.svg;" vertex="1" parent="1">
          <mxGeometry x="783" y="699" width="50" height="41" as="geometry" />
        </mxCell>
        <mxCell id="FhsTj9oqkJKDGmvPL3ci-19" value="" style="image;sketch=0;aspect=fixed;html=1;points=[];align=center;fontSize=12;image=img/lib/mscae/Docker.svg;" vertex="1" parent="1">
          <mxGeometry x="783" y="750" width="50" height="41" as="geometry" />
        </mxCell>
        <mxCell id="FhsTj9oqkJKDGmvPL3ci-20" value="Portainer&lt;br&gt;http://192.168.10.40:9000/" style="text;strokeColor=none;align=center;fillColor=none;html=1;verticalAlign=middle;whiteSpace=wrap;rounded=0;" vertex="1" parent="1">
          <mxGeometry x="893" y="649.5" width="60" height="30" as="geometry" />
        </mxCell>
        <mxCell id="FhsTj9oqkJKDGmvPL3ci-21" value="Unifi&amp;nbsp;&lt;br&gt;https://192.168.10.20:8443/" style="text;strokeColor=none;align=center;fillColor=none;html=1;verticalAlign=middle;whiteSpace=wrap;rounded=0;" vertex="1" parent="1">
          <mxGeometry x="893" y="699" width="60" height="30" as="geometry" />
        </mxCell>
        <mxCell id="FhsTj9oqkJKDGmvPL3ci-23" value="Nextcloud&lt;br&gt;https://home.davisfamily.xyz" style="text;strokeColor=none;align=center;fillColor=none;html=1;verticalAlign=middle;whiteSpace=wrap;rounded=0;" vertex="1" parent="1">
          <mxGeometry x="899.6" y="755.5" width="53.4" height="30" as="geometry" />
        </mxCell>
        <mxCell id="FhsTj9oqkJKDGmvPL3ci-24" value="" style="image;sketch=0;aspect=fixed;html=1;points=[];align=center;fontSize=12;image=img/lib/mscae/Docker.svg;" vertex="1" parent="1">
          <mxGeometry x="783" y="800" width="50" height="41" as="geometry" />
        </mxCell>
        <mxCell id="FhsTj9oqkJKDGmvPL3ci-25" value="Pihole&lt;br&gt;http://192.168.10.30/admin" style="text;strokeColor=none;align=center;fillColor=none;html=1;verticalAlign=middle;whiteSpace=wrap;rounded=0;" vertex="1" parent="1">
          <mxGeometry x="893" y="805.5" width="60" height="30" as="geometry" />
        </mxCell>
        <mxCell id="FhsTj9oqkJKDGmvPL3ci-26" value="" style="sketch=0;pointerEvents=1;shadow=0;dashed=0;html=1;strokeColor=none;fillColor=#005F4B;labelPosition=center;verticalLabelPosition=bottom;verticalAlign=top;align=center;outlineConnect=0;shape=mxgraph.veeam2.nas;" vertex="1" parent="1">
          <mxGeometry x="650" y="566" width="28.000000000000004" height="28.000000000000004" as="geometry" />
        </mxCell>
        <mxCell id="FhsTj9oqkJKDGmvPL3ci-27" value="ReadyNAS&lt;br&gt;192.168.10.6" style="text;strokeColor=none;align=center;fillColor=none;html=1;verticalAlign=middle;whiteSpace=wrap;rounded=0;" vertex="1" parent="1">
          <mxGeometry x="708" y="564" width="60" height="30" as="geometry" />
        </mxCell>
        <mxCell id="FhsTj9oqkJKDGmvPL3ci-30" value="" style="image;html=1;image=img/lib/clip_art/networking/Switch_128x128.png" vertex="1" parent="1">
          <mxGeometry x="10" y="667.3" width="80" height="80" as="geometry" />
        </mxCell>
        <mxCell id="FhsTj9oqkJKDGmvPL3ci-32" value="UPSTAIRS16PSW24 Port&amp;nbsp; POE Switch&lt;br&gt;Managed&lt;br&gt;192.168.10.7" style="text;strokeColor=none;align=center;fillColor=none;html=1;verticalAlign=middle;whiteSpace=wrap;rounded=0;" vertex="1" parent="1">
          <mxGeometry x="970" y="310" width="60" height="30" as="geometry" />
        </mxCell>
        <mxCell id="FhsTj9oqkJKDGmvPL3ci-33" value="TP-Link 8 Port POE Switch&lt;br&gt;Managed" style="text;strokeColor=none;align=center;fillColor=none;html=1;verticalAlign=middle;whiteSpace=wrap;rounded=0;" vertex="1" parent="1">
          <mxGeometry x="251.7" y="505" width="60" height="30" as="geometry" />
        </mxCell>
        <mxCell id="FhsTj9oqkJKDGmvPL3ci-34" value="TP-Link 8 Port Switch&lt;br&gt;Unmanaged" style="text;strokeColor=none;align=center;fillColor=none;html=1;verticalAlign=middle;whiteSpace=wrap;rounded=0;" vertex="1" parent="1">
          <mxGeometry x="110" y="691.5" width="60" height="30" as="geometry" />
        </mxCell>
        <mxCell id="FhsTj9oqkJKDGmvPL3ci-37" style="edgeStyle=orthogonalEdgeStyle;rounded=0;orthogonalLoop=1;jettySize=auto;html=1;exitX=0.5;exitY=1;exitDx=0;exitDy=0;entryX=0.5;entryY=0;entryDx=0;entryDy=0;entryPerimeter=0;" edge="1" parent="1" source="FhsTj9oqkJKDGmvPL3ci-3" target="FhsTj9oqkJKDGmvPL3ci-5">
          <mxGeometry relative="1" as="geometry" />
        </mxCell>
        <mxCell id="FhsTj9oqkJKDGmvPL3ci-48" style="edgeStyle=orthogonalEdgeStyle;rounded=0;orthogonalLoop=1;jettySize=auto;html=1;exitX=0.5;exitY=1;exitDx=0;exitDy=0;entryX=0.612;entryY=0.175;entryDx=0;entryDy=0;entryPerimeter=0;" edge="1" parent="1" source="FhsTj9oqkJKDGmvPL3ci-15" target="FhsTj9oqkJKDGmvPL3ci-29">
          <mxGeometry relative="1" as="geometry" />
        </mxCell>
        <mxCell id="FhsTj9oqkJKDGmvPL3ci-50" style="edgeStyle=orthogonalEdgeStyle;rounded=0;orthogonalLoop=1;jettySize=auto;html=1;exitX=0.25;exitY=1;exitDx=0;exitDy=0;entryX=0.418;entryY=0.022;entryDx=0;entryDy=0;entryPerimeter=0;" edge="1" parent="1" source="FhsTj9oqkJKDGmvPL3ci-12" target="FhsTj9oqkJKDGmvPL3ci-13">
          <mxGeometry relative="1" as="geometry" />
        </mxCell>
        <mxCell id="FhsTj9oqkJKDGmvPL3ci-52" value="" style="sketch=0;pointerEvents=1;shadow=0;dashed=0;html=1;strokeColor=none;fillColor=#505050;labelPosition=center;verticalLabelPosition=bottom;verticalAlign=top;outlineConnect=0;align=center;shape=mxgraph.office.devices.tv;" vertex="1" parent="1">
          <mxGeometry x="1088" y="525" width="59" height="45" as="geometry" />
        </mxCell>
        <mxCell id="FhsTj9oqkJKDGmvPL3ci-54" value="" style="shape=image;html=1;verticalAlign=top;verticalLabelPosition=bottom;labelBackgroundColor=#ffffff;imageAspect=0;aspect=fixed;image=https://cdn1.iconfinder.com/data/icons/fruit-136/64/Fruit_iconfree_Filled_Outline_raspberry-healthy-organic-food-fruit_icon-128.png" vertex="1" parent="1">
          <mxGeometry x="394" y="709" width="61" height="61" as="geometry" />
        </mxCell>
        <mxCell id="FhsTj9oqkJKDGmvPL3ci-55" value="R-Pi 3&lt;br&gt;Octoprint&lt;br&gt;192.168.10.18" style="text;strokeColor=none;align=center;fillColor=none;html=1;verticalAlign=middle;whiteSpace=wrap;rounded=0;" vertex="1" parent="1">
          <mxGeometry x="480" y="722.3" width="60" height="30" as="geometry" />
        </mxCell>
        <mxCell id="FhsTj9oqkJKDGmvPL3ci-56" value="HomeAssistant&lt;br&gt;http://192.168.10.40:8123/" style="text;strokeColor=none;align=center;fillColor=none;html=1;verticalAlign=middle;whiteSpace=wrap;rounded=0;" vertex="1" parent="1">
          <mxGeometry x="896.3" y="864" width="60" height="30" as="geometry" />
        </mxCell>
        <mxCell id="FhsTj9oqkJKDGmvPL3ci-57" value="" style="image;sketch=0;aspect=fixed;html=1;points=[];align=center;fontSize=12;image=img/lib/mscae/Docker.svg;" vertex="1" parent="1">
          <mxGeometry x="783" y="858.5" width="50" height="41" as="geometry" />
        </mxCell>
        <mxCell id="FhsTj9oqkJKDGmvPL3ci-63" style="edgeStyle=orthogonalEdgeStyle;rounded=1;orthogonalLoop=1;jettySize=auto;html=1;exitX=1;exitY=0;exitDx=0;exitDy=0;entryX=0;entryY=1;entryDx=0;entryDy=0;" edge="1" parent="1" source="FhsTj9oqkJKDGmvPL3ci-59" target="FhsTj9oqkJKDGmvPL3ci-11">
          <mxGeometry relative="1" as="geometry" />
        </mxCell>
        <mxCell id="FhsTj9oqkJKDGmvPL3ci-59" value="Record" style="strokeColor=#dddddd;shadow=1;strokeWidth=1;rounded=1;absoluteArcSize=1;arcSize=2;labelPosition=center;verticalLabelPosition=middle;align=center;verticalAlign=bottom;spacingLeft=0;fontColor=#999999;fontSize=12;whiteSpace=wrap;spacingBottom=2;html=1;" vertex="1" parent="1">
          <mxGeometry x="360" y="472" width="62" height="69" as="geometry" />
        </mxCell>
        <mxCell id="FhsTj9oqkJKDGmvPL3ci-60" value="" style="sketch=0;dashed=0;connectable=0;html=1;fillColor=#757575;strokeColor=none;shape=mxgraph.gcp2.record;part=1;" vertex="1" parent="FhsTj9oqkJKDGmvPL3ci-59">
          <mxGeometry x="0.5" width="50" height="33" relative="1" as="geometry">
            <mxPoint x="-25" y="18.5" as="offset" />
          </mxGeometry>
        </mxCell>
        <mxCell id="FhsTj9oqkJKDGmvPL3ci-61" value="NVR&lt;br&gt;192.168.10.177" style="text;strokeColor=none;align=center;fillColor=none;html=1;verticalAlign=middle;whiteSpace=wrap;rounded=0;" vertex="1" parent="1">
          <mxGeometry x="440" y="495" width="60" height="30" as="geometry" />
        </mxCell>
      </root>
    </mxGraphModel>
  </diagram>
</mxfile>
